<mxfile host="app.diagrams.net" modified="2020-11-26T15:45:44.900Z" agent="5.0 (Windows NT 6.3; Win64; x64) AppleWebKit/537.36 (KHTML, like Gecko) Chrome/86.0.4240.198 Safari/537.36" etag="YdJC8k8jvGFb09CezPai" version="13.10.3" type="github">
  <diagram name="Page-1" id="9f46799a-70d6-7492-0946-bef42562c5a5">
    <mxGraphModel dx="2547" dy="750" grid="1" gridSize="10" guides="0" tooltips="1" connect="1" arrows="1" fold="1" page="1" pageScale="1" pageWidth="1100" pageHeight="850" background="#ffffff" math="0" shadow="0">
      <root>
        <mxCell id="0" />
        <mxCell id="1" parent="0" />
        <mxCell id="dK3HnLpshDKFe_A81vRU-75" value="Employee_Details" style="shape=table;html=1;whiteSpace=wrap;startSize=30;container=1;collapsible=0;childLayout=tableLayout;fixedRows=1;rowLines=0;fontStyle=1;align=center;" vertex="1" parent="1">
          <mxGeometry x="-320" y="450" width="180" height="390" as="geometry" />
        </mxCell>
        <mxCell id="dK3HnLpshDKFe_A81vRU-76" value="" style="shape=partialRectangle;html=1;whiteSpace=wrap;collapsible=0;dropTarget=0;pointerEvents=0;fillColor=none;top=0;left=0;bottom=1;right=0;points=[[0,0.5],[1,0.5]];portConstraint=eastwest;" vertex="1" parent="dK3HnLpshDKFe_A81vRU-75">
          <mxGeometry y="30" width="180" height="30" as="geometry" />
        </mxCell>
        <mxCell id="dK3HnLpshDKFe_A81vRU-77" value="1" style="shape=partialRectangle;html=1;whiteSpace=wrap;connectable=0;fillColor=none;top=0;left=0;bottom=0;right=0;overflow=hidden;" vertex="1" parent="dK3HnLpshDKFe_A81vRU-76">
          <mxGeometry width="40" height="30" as="geometry" />
        </mxCell>
        <mxCell id="dK3HnLpshDKFe_A81vRU-78" value="emp_details_id" style="shape=partialRectangle;html=1;whiteSpace=wrap;connectable=0;fillColor=none;top=0;left=0;bottom=0;right=0;align=left;spacingLeft=6;overflow=hidden;" vertex="1" parent="dK3HnLpshDKFe_A81vRU-76">
          <mxGeometry x="40" width="140" height="30" as="geometry" />
        </mxCell>
        <mxCell id="dK3HnLpshDKFe_A81vRU-79" value="" style="shape=partialRectangle;html=1;whiteSpace=wrap;collapsible=0;dropTarget=0;pointerEvents=0;fillColor=none;top=0;left=0;bottom=0;right=0;points=[[0,0.5],[1,0.5]];portConstraint=eastwest;" vertex="1" parent="dK3HnLpshDKFe_A81vRU-75">
          <mxGeometry y="60" width="180" height="30" as="geometry" />
        </mxCell>
        <mxCell id="dK3HnLpshDKFe_A81vRU-80" value="2" style="shape=partialRectangle;html=1;whiteSpace=wrap;connectable=0;fillColor=none;top=0;left=0;bottom=0;right=0;overflow=hidden;" vertex="1" parent="dK3HnLpshDKFe_A81vRU-79">
          <mxGeometry width="40" height="30" as="geometry" />
        </mxCell>
        <mxCell id="dK3HnLpshDKFe_A81vRU-81" value="emp_id_fk" style="shape=partialRectangle;html=1;whiteSpace=wrap;connectable=0;fillColor=none;top=0;left=0;bottom=0;right=0;align=left;spacingLeft=6;overflow=hidden;" vertex="1" parent="dK3HnLpshDKFe_A81vRU-79">
          <mxGeometry x="40" width="140" height="30" as="geometry" />
        </mxCell>
        <mxCell id="dK3HnLpshDKFe_A81vRU-82" value="" style="shape=partialRectangle;html=1;whiteSpace=wrap;collapsible=0;dropTarget=0;pointerEvents=0;fillColor=none;top=0;left=0;bottom=0;right=0;points=[[0,0.5],[1,0.5]];portConstraint=eastwest;" vertex="1" parent="dK3HnLpshDKFe_A81vRU-75">
          <mxGeometry y="90" width="180" height="30" as="geometry" />
        </mxCell>
        <mxCell id="dK3HnLpshDKFe_A81vRU-83" value="3" style="shape=partialRectangle;html=1;whiteSpace=wrap;connectable=0;fillColor=none;top=0;left=0;bottom=0;right=0;overflow=hidden;" vertex="1" parent="dK3HnLpshDKFe_A81vRU-82">
          <mxGeometry width="40" height="30" as="geometry" />
        </mxCell>
        <mxCell id="dK3HnLpshDKFe_A81vRU-84" value="role_id_fk" style="shape=partialRectangle;html=1;whiteSpace=wrap;connectable=0;fillColor=none;top=0;left=0;bottom=0;right=0;align=left;spacingLeft=6;overflow=hidden;" vertex="1" parent="dK3HnLpshDKFe_A81vRU-82">
          <mxGeometry x="40" width="140" height="30" as="geometry" />
        </mxCell>
        <mxCell id="dK3HnLpshDKFe_A81vRU-180" value="" style="shape=partialRectangle;html=1;whiteSpace=wrap;collapsible=0;dropTarget=0;pointerEvents=0;fillColor=none;top=0;left=0;bottom=0;right=0;points=[[0,0.5],[1,0.5]];portConstraint=eastwest;" vertex="1" parent="dK3HnLpshDKFe_A81vRU-75">
          <mxGeometry y="120" width="180" height="30" as="geometry" />
        </mxCell>
        <mxCell id="dK3HnLpshDKFe_A81vRU-181" value="4" style="shape=partialRectangle;html=1;whiteSpace=wrap;connectable=0;fillColor=none;top=0;left=0;bottom=0;right=0;overflow=hidden;" vertex="1" parent="dK3HnLpshDKFe_A81vRU-180">
          <mxGeometry width="40" height="30" as="geometry" />
        </mxCell>
        <mxCell id="dK3HnLpshDKFe_A81vRU-182" value="status_id_fk" style="shape=partialRectangle;html=1;whiteSpace=wrap;connectable=0;fillColor=none;top=0;left=0;bottom=0;right=0;align=left;spacingLeft=6;overflow=hidden;" vertex="1" parent="dK3HnLpshDKFe_A81vRU-180">
          <mxGeometry x="40" width="140" height="30" as="geometry" />
        </mxCell>
        <mxCell id="dK3HnLpshDKFe_A81vRU-183" value="" style="shape=partialRectangle;html=1;whiteSpace=wrap;collapsible=0;dropTarget=0;pointerEvents=0;fillColor=none;top=0;left=0;bottom=0;right=0;points=[[0,0.5],[1,0.5]];portConstraint=eastwest;" vertex="1" parent="dK3HnLpshDKFe_A81vRU-75">
          <mxGeometry y="150" width="180" height="30" as="geometry" />
        </mxCell>
        <mxCell id="dK3HnLpshDKFe_A81vRU-184" value="5" style="shape=partialRectangle;html=1;whiteSpace=wrap;connectable=0;fillColor=none;top=0;left=0;bottom=0;right=0;overflow=hidden;" vertex="1" parent="dK3HnLpshDKFe_A81vRU-183">
          <mxGeometry width="40" height="30" as="geometry" />
        </mxCell>
        <mxCell id="dK3HnLpshDKFe_A81vRU-185" value="first_name" style="shape=partialRectangle;html=1;whiteSpace=wrap;connectable=0;fillColor=none;top=0;left=0;bottom=0;right=0;align=left;spacingLeft=6;overflow=hidden;" vertex="1" parent="dK3HnLpshDKFe_A81vRU-183">
          <mxGeometry x="40" width="140" height="30" as="geometry" />
        </mxCell>
        <mxCell id="dK3HnLpshDKFe_A81vRU-186" value="" style="shape=partialRectangle;html=1;whiteSpace=wrap;collapsible=0;dropTarget=0;pointerEvents=0;fillColor=none;top=0;left=0;bottom=0;right=0;points=[[0,0.5],[1,0.5]];portConstraint=eastwest;" vertex="1" parent="dK3HnLpshDKFe_A81vRU-75">
          <mxGeometry y="180" width="180" height="30" as="geometry" />
        </mxCell>
        <mxCell id="dK3HnLpshDKFe_A81vRU-187" value="6" style="shape=partialRectangle;html=1;whiteSpace=wrap;connectable=0;fillColor=none;top=0;left=0;bottom=0;right=0;overflow=hidden;" vertex="1" parent="dK3HnLpshDKFe_A81vRU-186">
          <mxGeometry width="40" height="30" as="geometry" />
        </mxCell>
        <mxCell id="dK3HnLpshDKFe_A81vRU-188" value="middle_name" style="shape=partialRectangle;html=1;whiteSpace=wrap;connectable=0;fillColor=none;top=0;left=0;bottom=0;right=0;align=left;spacingLeft=6;overflow=hidden;" vertex="1" parent="dK3HnLpshDKFe_A81vRU-186">
          <mxGeometry x="40" width="140" height="30" as="geometry" />
        </mxCell>
        <mxCell id="dK3HnLpshDKFe_A81vRU-101" value="" style="shape=partialRectangle;html=1;whiteSpace=wrap;collapsible=0;dropTarget=0;pointerEvents=0;fillColor=none;top=0;left=0;bottom=0;right=0;points=[[0,0.5],[1,0.5]];portConstraint=eastwest;" vertex="1" parent="dK3HnLpshDKFe_A81vRU-75">
          <mxGeometry y="210" width="180" height="30" as="geometry" />
        </mxCell>
        <mxCell id="dK3HnLpshDKFe_A81vRU-102" value="7" style="shape=partialRectangle;html=1;whiteSpace=wrap;connectable=0;fillColor=none;top=0;left=0;bottom=0;right=0;overflow=hidden;" vertex="1" parent="dK3HnLpshDKFe_A81vRU-101">
          <mxGeometry width="40" height="30" as="geometry" />
        </mxCell>
        <mxCell id="dK3HnLpshDKFe_A81vRU-103" value="last_name" style="shape=partialRectangle;html=1;whiteSpace=wrap;connectable=0;fillColor=none;top=0;left=0;bottom=0;right=0;align=left;spacingLeft=6;overflow=hidden;" vertex="1" parent="dK3HnLpshDKFe_A81vRU-101">
          <mxGeometry x="40" width="140" height="30" as="geometry" />
        </mxCell>
        <mxCell id="dK3HnLpshDKFe_A81vRU-157" value="" style="shape=partialRectangle;html=1;whiteSpace=wrap;collapsible=0;dropTarget=0;pointerEvents=0;fillColor=none;top=0;left=0;bottom=0;right=0;points=[[0,0.5],[1,0.5]];portConstraint=eastwest;" vertex="1" parent="dK3HnLpshDKFe_A81vRU-75">
          <mxGeometry y="240" width="180" height="30" as="geometry" />
        </mxCell>
        <mxCell id="dK3HnLpshDKFe_A81vRU-158" value="8" style="shape=partialRectangle;html=1;whiteSpace=wrap;connectable=0;fillColor=none;top=0;left=0;bottom=0;right=0;overflow=hidden;" vertex="1" parent="dK3HnLpshDKFe_A81vRU-157">
          <mxGeometry width="40" height="30" as="geometry" />
        </mxCell>
        <mxCell id="dK3HnLpshDKFe_A81vRU-159" value="age" style="shape=partialRectangle;html=1;whiteSpace=wrap;connectable=0;fillColor=none;top=0;left=0;bottom=0;right=0;align=left;spacingLeft=6;overflow=hidden;" vertex="1" parent="dK3HnLpshDKFe_A81vRU-157">
          <mxGeometry x="40" width="140" height="30" as="geometry" />
        </mxCell>
        <mxCell id="dK3HnLpshDKFe_A81vRU-160" value="" style="shape=partialRectangle;html=1;whiteSpace=wrap;collapsible=0;dropTarget=0;pointerEvents=0;fillColor=none;top=0;left=0;bottom=0;right=0;points=[[0,0.5],[1,0.5]];portConstraint=eastwest;" vertex="1" parent="dK3HnLpshDKFe_A81vRU-75">
          <mxGeometry y="270" width="180" height="30" as="geometry" />
        </mxCell>
        <mxCell id="dK3HnLpshDKFe_A81vRU-161" value="9" style="shape=partialRectangle;html=1;whiteSpace=wrap;connectable=0;fillColor=none;top=0;left=0;bottom=0;right=0;overflow=hidden;" vertex="1" parent="dK3HnLpshDKFe_A81vRU-160">
          <mxGeometry width="40" height="30" as="geometry" />
        </mxCell>
        <mxCell id="dK3HnLpshDKFe_A81vRU-162" value="sex" style="shape=partialRectangle;html=1;whiteSpace=wrap;connectable=0;fillColor=none;top=0;left=0;bottom=0;right=0;align=left;spacingLeft=6;overflow=hidden;" vertex="1" parent="dK3HnLpshDKFe_A81vRU-160">
          <mxGeometry x="40" width="140" height="30" as="geometry" />
        </mxCell>
        <mxCell id="dK3HnLpshDKFe_A81vRU-163" value="" style="shape=partialRectangle;html=1;whiteSpace=wrap;collapsible=0;dropTarget=0;pointerEvents=0;fillColor=none;top=0;left=0;bottom=0;right=0;points=[[0,0.5],[1,0.5]];portConstraint=eastwest;" vertex="1" parent="dK3HnLpshDKFe_A81vRU-75">
          <mxGeometry y="300" width="180" height="30" as="geometry" />
        </mxCell>
        <mxCell id="dK3HnLpshDKFe_A81vRU-164" value="10" style="shape=partialRectangle;html=1;whiteSpace=wrap;connectable=0;fillColor=none;top=0;left=0;bottom=0;right=0;overflow=hidden;" vertex="1" parent="dK3HnLpshDKFe_A81vRU-163">
          <mxGeometry width="40" height="30" as="geometry" />
        </mxCell>
        <mxCell id="dK3HnLpshDKFe_A81vRU-165" value="address" style="shape=partialRectangle;html=1;whiteSpace=wrap;connectable=0;fillColor=none;top=0;left=0;bottom=0;right=0;align=left;spacingLeft=6;overflow=hidden;" vertex="1" parent="dK3HnLpshDKFe_A81vRU-163">
          <mxGeometry x="40" width="140" height="30" as="geometry" />
        </mxCell>
        <mxCell id="dK3HnLpshDKFe_A81vRU-189" value="" style="shape=partialRectangle;html=1;whiteSpace=wrap;collapsible=0;dropTarget=0;pointerEvents=0;fillColor=none;top=0;left=0;bottom=0;right=0;points=[[0,0.5],[1,0.5]];portConstraint=eastwest;" vertex="1" parent="dK3HnLpshDKFe_A81vRU-75">
          <mxGeometry y="330" width="180" height="30" as="geometry" />
        </mxCell>
        <mxCell id="dK3HnLpshDKFe_A81vRU-190" value="11" style="shape=partialRectangle;html=1;whiteSpace=wrap;connectable=0;fillColor=none;top=0;left=0;bottom=0;right=0;overflow=hidden;" vertex="1" parent="dK3HnLpshDKFe_A81vRU-189">
          <mxGeometry width="40" height="30" as="geometry" />
        </mxCell>
        <mxCell id="dK3HnLpshDKFe_A81vRU-191" value="contact_num" style="shape=partialRectangle;html=1;whiteSpace=wrap;connectable=0;fillColor=none;top=0;left=0;bottom=0;right=0;align=left;spacingLeft=6;overflow=hidden;" vertex="1" parent="dK3HnLpshDKFe_A81vRU-189">
          <mxGeometry x="40" width="140" height="30" as="geometry" />
        </mxCell>
        <mxCell id="dK3HnLpshDKFe_A81vRU-167" value="" style="shape=partialRectangle;html=1;whiteSpace=wrap;collapsible=0;dropTarget=0;pointerEvents=0;fillColor=none;top=0;left=0;bottom=0;right=0;points=[[0,0.5],[1,0.5]];portConstraint=eastwest;" vertex="1" parent="dK3HnLpshDKFe_A81vRU-75">
          <mxGeometry y="360" width="180" height="30" as="geometry" />
        </mxCell>
        <mxCell id="dK3HnLpshDKFe_A81vRU-168" value="12" style="shape=partialRectangle;html=1;whiteSpace=wrap;connectable=0;fillColor=none;top=0;left=0;bottom=0;right=0;overflow=hidden;" vertex="1" parent="dK3HnLpshDKFe_A81vRU-167">
          <mxGeometry width="40" height="30" as="geometry" />
        </mxCell>
        <mxCell id="dK3HnLpshDKFe_A81vRU-169" value="profile_pic" style="shape=partialRectangle;html=1;whiteSpace=wrap;connectable=0;fillColor=none;top=0;left=0;bottom=0;right=0;align=left;spacingLeft=6;overflow=hidden;" vertex="1" parent="dK3HnLpshDKFe_A81vRU-167">
          <mxGeometry x="40" width="140" height="30" as="geometry" />
        </mxCell>
        <mxCell id="dK3HnLpshDKFe_A81vRU-123" value="Employees" style="shape=table;html=1;whiteSpace=wrap;startSize=30;container=1;collapsible=0;childLayout=tableLayout;fixedRows=1;rowLines=0;fontStyle=1;align=center;" vertex="1" parent="1">
          <mxGeometry x="-600" y="190" width="180" height="240" as="geometry" />
        </mxCell>
        <mxCell id="dK3HnLpshDKFe_A81vRU-124" value="" style="shape=partialRectangle;html=1;whiteSpace=wrap;collapsible=0;dropTarget=0;pointerEvents=0;fillColor=none;top=0;left=0;bottom=1;right=0;points=[[0,0.5],[1,0.5]];portConstraint=eastwest;" vertex="1" parent="dK3HnLpshDKFe_A81vRU-123">
          <mxGeometry y="30" width="180" height="30" as="geometry" />
        </mxCell>
        <mxCell id="dK3HnLpshDKFe_A81vRU-125" value="1" style="shape=partialRectangle;html=1;whiteSpace=wrap;connectable=0;fillColor=none;top=0;left=0;bottom=0;right=0;overflow=hidden;" vertex="1" parent="dK3HnLpshDKFe_A81vRU-124">
          <mxGeometry width="40" height="30" as="geometry" />
        </mxCell>
        <mxCell id="dK3HnLpshDKFe_A81vRU-126" value="emp_id" style="shape=partialRectangle;html=1;whiteSpace=wrap;connectable=0;fillColor=none;top=0;left=0;bottom=0;right=0;align=left;spacingLeft=6;overflow=hidden;" vertex="1" parent="dK3HnLpshDKFe_A81vRU-124">
          <mxGeometry x="40" width="140" height="30" as="geometry" />
        </mxCell>
        <mxCell id="dK3HnLpshDKFe_A81vRU-127" value="" style="shape=partialRectangle;html=1;whiteSpace=wrap;collapsible=0;dropTarget=0;pointerEvents=0;fillColor=none;top=0;left=0;bottom=0;right=0;points=[[0,0.5],[1,0.5]];portConstraint=eastwest;" vertex="1" parent="dK3HnLpshDKFe_A81vRU-123">
          <mxGeometry y="60" width="180" height="30" as="geometry" />
        </mxCell>
        <mxCell id="dK3HnLpshDKFe_A81vRU-128" value="2" style="shape=partialRectangle;html=1;whiteSpace=wrap;connectable=0;fillColor=none;top=0;left=0;bottom=0;right=0;overflow=hidden;" vertex="1" parent="dK3HnLpshDKFe_A81vRU-127">
          <mxGeometry width="40" height="30" as="geometry" />
        </mxCell>
        <mxCell id="dK3HnLpshDKFe_A81vRU-129" value="dept_id_fk" style="shape=partialRectangle;html=1;whiteSpace=wrap;connectable=0;fillColor=none;top=0;left=0;bottom=0;right=0;align=left;spacingLeft=6;overflow=hidden;" vertex="1" parent="dK3HnLpshDKFe_A81vRU-127">
          <mxGeometry x="40" width="140" height="30" as="geometry" />
        </mxCell>
        <mxCell id="dK3HnLpshDKFe_A81vRU-133" value="" style="shape=partialRectangle;html=1;whiteSpace=wrap;collapsible=0;dropTarget=0;pointerEvents=0;fillColor=none;top=0;left=0;bottom=0;right=0;points=[[0,0.5],[1,0.5]];portConstraint=eastwest;" vertex="1" parent="dK3HnLpshDKFe_A81vRU-123">
          <mxGeometry y="90" width="180" height="30" as="geometry" />
        </mxCell>
        <mxCell id="dK3HnLpshDKFe_A81vRU-134" value="3" style="shape=partialRectangle;html=1;whiteSpace=wrap;connectable=0;fillColor=none;top=0;left=0;bottom=0;right=0;overflow=hidden;" vertex="1" parent="dK3HnLpshDKFe_A81vRU-133">
          <mxGeometry width="40" height="30" as="geometry" />
        </mxCell>
        <mxCell id="dK3HnLpshDKFe_A81vRU-135" value="role_id_fk" style="shape=partialRectangle;html=1;whiteSpace=wrap;connectable=0;fillColor=none;top=0;left=0;bottom=0;right=0;align=left;spacingLeft=6;overflow=hidden;" vertex="1" parent="dK3HnLpshDKFe_A81vRU-133">
          <mxGeometry x="40" width="140" height="30" as="geometry" />
        </mxCell>
        <mxCell id="dK3HnLpshDKFe_A81vRU-136" value="" style="shape=partialRectangle;html=1;whiteSpace=wrap;collapsible=0;dropTarget=0;pointerEvents=0;fillColor=none;top=0;left=0;bottom=0;right=0;points=[[0,0.5],[1,0.5]];portConstraint=eastwest;" vertex="1" parent="dK3HnLpshDKFe_A81vRU-123">
          <mxGeometry y="120" width="180" height="30" as="geometry" />
        </mxCell>
        <mxCell id="dK3HnLpshDKFe_A81vRU-137" value="4" style="shape=partialRectangle;html=1;whiteSpace=wrap;connectable=0;fillColor=none;top=0;left=0;bottom=0;right=0;overflow=hidden;" vertex="1" parent="dK3HnLpshDKFe_A81vRU-136">
          <mxGeometry width="40" height="30" as="geometry" />
        </mxCell>
        <mxCell id="dK3HnLpshDKFe_A81vRU-138" value="emp_details_id_fk" style="shape=partialRectangle;html=1;whiteSpace=wrap;connectable=0;fillColor=none;top=0;left=0;bottom=0;right=0;align=left;spacingLeft=6;overflow=hidden;" vertex="1" parent="dK3HnLpshDKFe_A81vRU-136">
          <mxGeometry x="40" width="140" height="30" as="geometry" />
        </mxCell>
        <mxCell id="dK3HnLpshDKFe_A81vRU-139" value="" style="shape=partialRectangle;html=1;whiteSpace=wrap;collapsible=0;dropTarget=0;pointerEvents=0;fillColor=none;top=0;left=0;bottom=0;right=0;points=[[0,0.5],[1,0.5]];portConstraint=eastwest;" vertex="1" parent="dK3HnLpshDKFe_A81vRU-123">
          <mxGeometry y="150" width="180" height="30" as="geometry" />
        </mxCell>
        <mxCell id="dK3HnLpshDKFe_A81vRU-140" value="5" style="shape=partialRectangle;html=1;whiteSpace=wrap;connectable=0;fillColor=none;top=0;left=0;bottom=0;right=0;overflow=hidden;" vertex="1" parent="dK3HnLpshDKFe_A81vRU-139">
          <mxGeometry width="40" height="30" as="geometry" />
        </mxCell>
        <mxCell id="dK3HnLpshDKFe_A81vRU-141" value="emp_login_id" style="shape=partialRectangle;html=1;whiteSpace=wrap;connectable=0;fillColor=none;top=0;left=0;bottom=0;right=0;align=left;spacingLeft=6;overflow=hidden;" vertex="1" parent="dK3HnLpshDKFe_A81vRU-139">
          <mxGeometry x="40" width="140" height="30" as="geometry" />
        </mxCell>
        <mxCell id="dK3HnLpshDKFe_A81vRU-130" value="" style="shape=partialRectangle;html=1;whiteSpace=wrap;collapsible=0;dropTarget=0;pointerEvents=0;fillColor=none;top=0;left=0;bottom=0;right=0;points=[[0,0.5],[1,0.5]];portConstraint=eastwest;" vertex="1" parent="dK3HnLpshDKFe_A81vRU-123">
          <mxGeometry y="180" width="180" height="30" as="geometry" />
        </mxCell>
        <mxCell id="dK3HnLpshDKFe_A81vRU-131" value="6" style="shape=partialRectangle;html=1;whiteSpace=wrap;connectable=0;fillColor=none;top=0;left=0;bottom=0;right=0;overflow=hidden;" vertex="1" parent="dK3HnLpshDKFe_A81vRU-130">
          <mxGeometry width="40" height="30" as="geometry" />
        </mxCell>
        <mxCell id="dK3HnLpshDKFe_A81vRU-132" value="password" style="shape=partialRectangle;html=1;whiteSpace=wrap;connectable=0;fillColor=none;top=0;left=0;bottom=0;right=0;align=left;spacingLeft=6;overflow=hidden;" vertex="1" parent="dK3HnLpshDKFe_A81vRU-130">
          <mxGeometry x="40" width="140" height="30" as="geometry" />
        </mxCell>
        <mxCell id="dK3HnLpshDKFe_A81vRU-233" value="" style="shape=partialRectangle;html=1;whiteSpace=wrap;collapsible=0;dropTarget=0;pointerEvents=0;fillColor=none;top=0;left=0;bottom=0;right=0;points=[[0,0.5],[1,0.5]];portConstraint=eastwest;" vertex="1" parent="dK3HnLpshDKFe_A81vRU-123">
          <mxGeometry y="210" width="180" height="30" as="geometry" />
        </mxCell>
        <mxCell id="dK3HnLpshDKFe_A81vRU-234" value="7" style="shape=partialRectangle;html=1;whiteSpace=wrap;connectable=0;fillColor=none;top=0;left=0;bottom=0;right=0;overflow=hidden;" vertex="1" parent="dK3HnLpshDKFe_A81vRU-233">
          <mxGeometry width="40" height="30" as="geometry" />
        </mxCell>
        <mxCell id="dK3HnLpshDKFe_A81vRU-235" value="attendance_id_fk" style="shape=partialRectangle;html=1;whiteSpace=wrap;connectable=0;fillColor=none;top=0;left=0;bottom=0;right=0;align=left;spacingLeft=6;overflow=hidden;" vertex="1" parent="dK3HnLpshDKFe_A81vRU-233">
          <mxGeometry x="40" width="140" height="30" as="geometry" />
        </mxCell>
        <mxCell id="dK3HnLpshDKFe_A81vRU-170" value="Status" style="shape=table;html=1;whiteSpace=wrap;startSize=30;container=1;collapsible=0;childLayout=tableLayout;fixedRows=1;rowLines=0;fontStyle=1;align=center;" vertex="1" parent="1">
          <mxGeometry x="-570" y="540" width="180" height="150" as="geometry" />
        </mxCell>
        <mxCell id="dK3HnLpshDKFe_A81vRU-171" value="" style="shape=partialRectangle;html=1;whiteSpace=wrap;collapsible=0;dropTarget=0;pointerEvents=0;fillColor=none;top=0;left=0;bottom=1;right=0;points=[[0,0.5],[1,0.5]];portConstraint=eastwest;" vertex="1" parent="dK3HnLpshDKFe_A81vRU-170">
          <mxGeometry y="30" width="180" height="30" as="geometry" />
        </mxCell>
        <mxCell id="dK3HnLpshDKFe_A81vRU-172" value="1" style="shape=partialRectangle;html=1;whiteSpace=wrap;connectable=0;fillColor=none;top=0;left=0;bottom=0;right=0;overflow=hidden;" vertex="1" parent="dK3HnLpshDKFe_A81vRU-171">
          <mxGeometry width="40" height="30" as="geometry" />
        </mxCell>
        <mxCell id="dK3HnLpshDKFe_A81vRU-173" value="status_id" style="shape=partialRectangle;html=1;whiteSpace=wrap;connectable=0;fillColor=none;top=0;left=0;bottom=0;right=0;align=left;spacingLeft=6;overflow=hidden;" vertex="1" parent="dK3HnLpshDKFe_A81vRU-171">
          <mxGeometry x="40" width="140" height="30" as="geometry" />
        </mxCell>
        <mxCell id="dK3HnLpshDKFe_A81vRU-174" value="" style="shape=partialRectangle;html=1;whiteSpace=wrap;collapsible=0;dropTarget=0;pointerEvents=0;fillColor=none;top=0;left=0;bottom=0;right=0;points=[[0,0.5],[1,0.5]];portConstraint=eastwest;" vertex="1" parent="dK3HnLpshDKFe_A81vRU-170">
          <mxGeometry y="60" width="180" height="30" as="geometry" />
        </mxCell>
        <mxCell id="dK3HnLpshDKFe_A81vRU-175" value="2" style="shape=partialRectangle;html=1;whiteSpace=wrap;connectable=0;fillColor=none;top=0;left=0;bottom=0;right=0;overflow=hidden;" vertex="1" parent="dK3HnLpshDKFe_A81vRU-174">
          <mxGeometry width="40" height="30" as="geometry" />
        </mxCell>
        <mxCell id="dK3HnLpshDKFe_A81vRU-176" value="active" style="shape=partialRectangle;html=1;whiteSpace=wrap;connectable=0;fillColor=none;top=0;left=0;bottom=0;right=0;align=left;spacingLeft=6;overflow=hidden;" vertex="1" parent="dK3HnLpshDKFe_A81vRU-174">
          <mxGeometry x="40" width="140" height="30" as="geometry" />
        </mxCell>
        <mxCell id="dK3HnLpshDKFe_A81vRU-177" value="" style="shape=partialRectangle;html=1;whiteSpace=wrap;collapsible=0;dropTarget=0;pointerEvents=0;fillColor=none;top=0;left=0;bottom=0;right=0;points=[[0,0.5],[1,0.5]];portConstraint=eastwest;" vertex="1" parent="dK3HnLpshDKFe_A81vRU-170">
          <mxGeometry y="90" width="180" height="30" as="geometry" />
        </mxCell>
        <mxCell id="dK3HnLpshDKFe_A81vRU-178" value="3" style="shape=partialRectangle;html=1;whiteSpace=wrap;connectable=0;fillColor=none;top=0;left=0;bottom=0;right=0;overflow=hidden;" vertex="1" parent="dK3HnLpshDKFe_A81vRU-177">
          <mxGeometry width="40" height="30" as="geometry" />
        </mxCell>
        <mxCell id="dK3HnLpshDKFe_A81vRU-179" value="inactive" style="shape=partialRectangle;html=1;whiteSpace=wrap;connectable=0;fillColor=none;top=0;left=0;bottom=0;right=0;align=left;spacingLeft=6;overflow=hidden;" vertex="1" parent="dK3HnLpshDKFe_A81vRU-177">
          <mxGeometry x="40" width="140" height="30" as="geometry" />
        </mxCell>
        <mxCell id="dK3HnLpshDKFe_A81vRU-194" value="" style="endArrow=classic;startArrow=classic;html=1;entryX=0;entryY=0.5;entryDx=0;entryDy=0;exitX=1;exitY=0.5;exitDx=0;exitDy=0;" edge="1" parent="1" source="dK3HnLpshDKFe_A81vRU-136" target="dK3HnLpshDKFe_A81vRU-76">
          <mxGeometry width="50" height="50" relative="1" as="geometry">
            <mxPoint x="-370" y="330" as="sourcePoint" />
            <mxPoint x="-750" y="160" as="targetPoint" />
            <Array as="points">
              <mxPoint x="-370" y="325" />
              <mxPoint x="-370" y="400" />
              <mxPoint x="-370" y="495" />
            </Array>
          </mxGeometry>
        </mxCell>
        <mxCell id="dK3HnLpshDKFe_A81vRU-197" value="Department" style="shape=table;html=1;whiteSpace=wrap;startSize=30;container=1;collapsible=0;childLayout=tableLayout;fixedRows=1;rowLines=0;fontStyle=1;align=center;" vertex="1" parent="1">
          <mxGeometry x="-840" y="210" width="180" height="120" as="geometry" />
        </mxCell>
        <mxCell id="dK3HnLpshDKFe_A81vRU-198" value="" style="shape=partialRectangle;html=1;whiteSpace=wrap;collapsible=0;dropTarget=0;pointerEvents=0;fillColor=none;top=0;left=0;bottom=1;right=0;points=[[0,0.5],[1,0.5]];portConstraint=eastwest;" vertex="1" parent="dK3HnLpshDKFe_A81vRU-197">
          <mxGeometry y="30" width="180" height="30" as="geometry" />
        </mxCell>
        <mxCell id="dK3HnLpshDKFe_A81vRU-199" value="1" style="shape=partialRectangle;html=1;whiteSpace=wrap;connectable=0;fillColor=none;top=0;left=0;bottom=0;right=0;overflow=hidden;" vertex="1" parent="dK3HnLpshDKFe_A81vRU-198">
          <mxGeometry width="40" height="30" as="geometry" />
        </mxCell>
        <mxCell id="dK3HnLpshDKFe_A81vRU-200" value="dept_id" style="shape=partialRectangle;html=1;whiteSpace=wrap;connectable=0;fillColor=none;top=0;left=0;bottom=0;right=0;align=left;spacingLeft=6;overflow=hidden;" vertex="1" parent="dK3HnLpshDKFe_A81vRU-198">
          <mxGeometry x="40" width="140" height="30" as="geometry" />
        </mxCell>
        <mxCell id="dK3HnLpshDKFe_A81vRU-201" value="" style="shape=partialRectangle;html=1;whiteSpace=wrap;collapsible=0;dropTarget=0;pointerEvents=0;fillColor=none;top=0;left=0;bottom=0;right=0;points=[[0,0.5],[1,0.5]];portConstraint=eastwest;" vertex="1" parent="dK3HnLpshDKFe_A81vRU-197">
          <mxGeometry y="60" width="180" height="30" as="geometry" />
        </mxCell>
        <mxCell id="dK3HnLpshDKFe_A81vRU-202" value="2" style="shape=partialRectangle;html=1;whiteSpace=wrap;connectable=0;fillColor=none;top=0;left=0;bottom=0;right=0;overflow=hidden;" vertex="1" parent="dK3HnLpshDKFe_A81vRU-201">
          <mxGeometry width="40" height="30" as="geometry" />
        </mxCell>
        <mxCell id="dK3HnLpshDKFe_A81vRU-203" value="department" style="shape=partialRectangle;html=1;whiteSpace=wrap;connectable=0;fillColor=none;top=0;left=0;bottom=0;right=0;align=left;spacingLeft=6;overflow=hidden;" vertex="1" parent="dK3HnLpshDKFe_A81vRU-201">
          <mxGeometry x="40" width="140" height="30" as="geometry" />
        </mxCell>
        <mxCell id="dK3HnLpshDKFe_A81vRU-207" value="Attendance" style="shape=table;html=1;whiteSpace=wrap;startSize=30;container=1;collapsible=0;childLayout=tableLayout;fixedRows=1;rowLines=0;fontStyle=1;align=center;" vertex="1" parent="1">
          <mxGeometry x="-850" y="370" width="180" height="180" as="geometry" />
        </mxCell>
        <mxCell id="dK3HnLpshDKFe_A81vRU-208" value="" style="shape=partialRectangle;html=1;whiteSpace=wrap;collapsible=0;dropTarget=0;pointerEvents=0;fillColor=none;top=0;left=0;bottom=1;right=0;points=[[0,0.5],[1,0.5]];portConstraint=eastwest;" vertex="1" parent="dK3HnLpshDKFe_A81vRU-207">
          <mxGeometry y="30" width="180" height="30" as="geometry" />
        </mxCell>
        <mxCell id="dK3HnLpshDKFe_A81vRU-209" value="1" style="shape=partialRectangle;html=1;whiteSpace=wrap;connectable=0;fillColor=none;top=0;left=0;bottom=0;right=0;overflow=hidden;" vertex="1" parent="dK3HnLpshDKFe_A81vRU-208">
          <mxGeometry width="40" height="30" as="geometry" />
        </mxCell>
        <mxCell id="dK3HnLpshDKFe_A81vRU-210" value="attendance_id" style="shape=partialRectangle;html=1;whiteSpace=wrap;connectable=0;fillColor=none;top=0;left=0;bottom=0;right=0;align=left;spacingLeft=6;overflow=hidden;" vertex="1" parent="dK3HnLpshDKFe_A81vRU-208">
          <mxGeometry x="40" width="140" height="30" as="geometry" />
        </mxCell>
        <mxCell id="dK3HnLpshDKFe_A81vRU-211" value="" style="shape=partialRectangle;html=1;whiteSpace=wrap;collapsible=0;dropTarget=0;pointerEvents=0;fillColor=none;top=0;left=0;bottom=0;right=0;points=[[0,0.5],[1,0.5]];portConstraint=eastwest;" vertex="1" parent="dK3HnLpshDKFe_A81vRU-207">
          <mxGeometry y="60" width="180" height="30" as="geometry" />
        </mxCell>
        <mxCell id="dK3HnLpshDKFe_A81vRU-212" value="2" style="shape=partialRectangle;html=1;whiteSpace=wrap;connectable=0;fillColor=none;top=0;left=0;bottom=0;right=0;overflow=hidden;" vertex="1" parent="dK3HnLpshDKFe_A81vRU-211">
          <mxGeometry width="40" height="30" as="geometry" />
        </mxCell>
        <mxCell id="dK3HnLpshDKFe_A81vRU-213" value="emp_id_fk" style="shape=partialRectangle;html=1;whiteSpace=wrap;connectable=0;fillColor=none;top=0;left=0;bottom=0;right=0;align=left;spacingLeft=6;overflow=hidden;" vertex="1" parent="dK3HnLpshDKFe_A81vRU-211">
          <mxGeometry x="40" width="140" height="30" as="geometry" />
        </mxCell>
        <mxCell id="dK3HnLpshDKFe_A81vRU-214" value="" style="shape=partialRectangle;html=1;whiteSpace=wrap;collapsible=0;dropTarget=0;pointerEvents=0;fillColor=none;top=0;left=0;bottom=0;right=0;points=[[0,0.5],[1,0.5]];portConstraint=eastwest;" vertex="1" parent="dK3HnLpshDKFe_A81vRU-207">
          <mxGeometry y="90" width="180" height="30" as="geometry" />
        </mxCell>
        <mxCell id="dK3HnLpshDKFe_A81vRU-215" value="3" style="shape=partialRectangle;html=1;whiteSpace=wrap;connectable=0;fillColor=none;top=0;left=0;bottom=0;right=0;overflow=hidden;" vertex="1" parent="dK3HnLpshDKFe_A81vRU-214">
          <mxGeometry width="40" height="30" as="geometry" />
        </mxCell>
        <mxCell id="dK3HnLpshDKFe_A81vRU-216" value="time_in" style="shape=partialRectangle;html=1;whiteSpace=wrap;connectable=0;fillColor=none;top=0;left=0;bottom=0;right=0;align=left;spacingLeft=6;overflow=hidden;" vertex="1" parent="dK3HnLpshDKFe_A81vRU-214">
          <mxGeometry x="40" width="140" height="30" as="geometry" />
        </mxCell>
        <mxCell id="dK3HnLpshDKFe_A81vRU-217" value="" style="shape=partialRectangle;html=1;whiteSpace=wrap;collapsible=0;dropTarget=0;pointerEvents=0;fillColor=none;top=0;left=0;bottom=0;right=0;points=[[0,0.5],[1,0.5]];portConstraint=eastwest;" vertex="1" parent="dK3HnLpshDKFe_A81vRU-207">
          <mxGeometry y="120" width="180" height="30" as="geometry" />
        </mxCell>
        <mxCell id="dK3HnLpshDKFe_A81vRU-218" value="4" style="shape=partialRectangle;html=1;whiteSpace=wrap;connectable=0;fillColor=none;top=0;left=0;bottom=0;right=0;overflow=hidden;" vertex="1" parent="dK3HnLpshDKFe_A81vRU-217">
          <mxGeometry width="40" height="30" as="geometry" />
        </mxCell>
        <mxCell id="dK3HnLpshDKFe_A81vRU-219" value="time_out" style="shape=partialRectangle;html=1;whiteSpace=wrap;connectable=0;fillColor=none;top=0;left=0;bottom=0;right=0;align=left;spacingLeft=6;overflow=hidden;" vertex="1" parent="dK3HnLpshDKFe_A81vRU-217">
          <mxGeometry x="40" width="140" height="30" as="geometry" />
        </mxCell>
        <mxCell id="dK3HnLpshDKFe_A81vRU-220" value="" style="endArrow=classic;html=1;exitX=0.991;exitY=-0.163;exitDx=0;exitDy=0;exitPerimeter=0;entryX=0;entryY=0.5;entryDx=0;entryDy=0;" edge="1" parent="1" source="dK3HnLpshDKFe_A81vRU-201" target="dK3HnLpshDKFe_A81vRU-127">
          <mxGeometry width="50" height="50" relative="1" as="geometry">
            <mxPoint x="-750" y="350" as="sourcePoint" />
            <mxPoint x="-700" y="300" as="targetPoint" />
          </mxGeometry>
        </mxCell>
        <mxCell id="dK3HnLpshDKFe_A81vRU-222" value="Role" style="shape=table;html=1;whiteSpace=wrap;startSize=30;container=1;collapsible=0;childLayout=tableLayout;fixedRows=1;rowLines=0;fontStyle=1;align=center;" vertex="1" parent="1">
          <mxGeometry x="-310" y="250" width="180" height="120" as="geometry" />
        </mxCell>
        <mxCell id="dK3HnLpshDKFe_A81vRU-223" value="" style="shape=partialRectangle;html=1;whiteSpace=wrap;collapsible=0;dropTarget=0;pointerEvents=0;fillColor=none;top=0;left=0;bottom=1;right=0;points=[[0,0.5],[1,0.5]];portConstraint=eastwest;" vertex="1" parent="dK3HnLpshDKFe_A81vRU-222">
          <mxGeometry y="30" width="180" height="30" as="geometry" />
        </mxCell>
        <mxCell id="dK3HnLpshDKFe_A81vRU-224" value="1" style="shape=partialRectangle;html=1;whiteSpace=wrap;connectable=0;fillColor=none;top=0;left=0;bottom=0;right=0;overflow=hidden;" vertex="1" parent="dK3HnLpshDKFe_A81vRU-223">
          <mxGeometry width="40" height="30" as="geometry" />
        </mxCell>
        <mxCell id="dK3HnLpshDKFe_A81vRU-225" value="role_id" style="shape=partialRectangle;html=1;whiteSpace=wrap;connectable=0;fillColor=none;top=0;left=0;bottom=0;right=0;align=left;spacingLeft=6;overflow=hidden;" vertex="1" parent="dK3HnLpshDKFe_A81vRU-223">
          <mxGeometry x="40" width="140" height="30" as="geometry" />
        </mxCell>
        <mxCell id="dK3HnLpshDKFe_A81vRU-226" value="" style="shape=partialRectangle;html=1;whiteSpace=wrap;collapsible=0;dropTarget=0;pointerEvents=0;fillColor=none;top=0;left=0;bottom=0;right=0;points=[[0,0.5],[1,0.5]];portConstraint=eastwest;" vertex="1" parent="dK3HnLpshDKFe_A81vRU-222">
          <mxGeometry y="60" width="180" height="30" as="geometry" />
        </mxCell>
        <mxCell id="dK3HnLpshDKFe_A81vRU-227" value="2" style="shape=partialRectangle;html=1;whiteSpace=wrap;connectable=0;fillColor=none;top=0;left=0;bottom=0;right=0;overflow=hidden;" vertex="1" parent="dK3HnLpshDKFe_A81vRU-226">
          <mxGeometry width="40" height="30" as="geometry" />
        </mxCell>
        <mxCell id="dK3HnLpshDKFe_A81vRU-228" value="Role" style="shape=partialRectangle;html=1;whiteSpace=wrap;connectable=0;fillColor=none;top=0;left=0;bottom=0;right=0;align=left;spacingLeft=6;overflow=hidden;" vertex="1" parent="dK3HnLpshDKFe_A81vRU-226">
          <mxGeometry x="40" width="140" height="30" as="geometry" />
        </mxCell>
        <mxCell id="dK3HnLpshDKFe_A81vRU-236" value="" style="endArrow=classic;startArrow=classic;html=1;exitX=1;exitY=0.5;exitDx=0;exitDy=0;entryX=0;entryY=0.5;entryDx=0;entryDy=0;" edge="1" parent="1" source="dK3HnLpshDKFe_A81vRU-208" target="dK3HnLpshDKFe_A81vRU-233">
          <mxGeometry width="50" height="50" relative="1" as="geometry">
            <mxPoint x="-710" y="540" as="sourcePoint" />
            <mxPoint x="-690" y="420" as="targetPoint" />
          </mxGeometry>
        </mxCell>
        <mxCell id="dK3HnLpshDKFe_A81vRU-238" value="" style="endArrow=classic;startArrow=classic;html=1;exitX=1;exitY=0.5;exitDx=0;exitDy=0;entryX=0;entryY=0.5;entryDx=0;entryDy=0;" edge="1" parent="1" source="dK3HnLpshDKFe_A81vRU-133" target="dK3HnLpshDKFe_A81vRU-223">
          <mxGeometry width="50" height="50" relative="1" as="geometry">
            <mxPoint x="-360" y="320" as="sourcePoint" />
            <mxPoint x="-310" y="270" as="targetPoint" />
          </mxGeometry>
        </mxCell>
        <mxCell id="dK3HnLpshDKFe_A81vRU-244" value="" style="endArrow=classic;startArrow=classic;html=1;exitX=1;exitY=0.5;exitDx=0;exitDy=0;entryX=0;entryY=0.5;entryDx=0;entryDy=0;" edge="1" parent="1" source="dK3HnLpshDKFe_A81vRU-171" target="dK3HnLpshDKFe_A81vRU-180">
          <mxGeometry width="50" height="50" relative="1" as="geometry">
            <mxPoint x="-370" y="640" as="sourcePoint" />
            <mxPoint x="-320" y="590" as="targetPoint" />
          </mxGeometry>
        </mxCell>
      </root>
    </mxGraphModel>
  </diagram>
</mxfile>
